<svg xmlns="http://www.w3.org/2000/svg" viewBox="0 0 873.4 909.49" role="img" aria-label="松富物流">
  <!-- 松富物流正式標誌（由客戶提供 .ai 轉出，去背藍色向量）。 -->
  <g transform="matrix(1 0 0 -1 -70.5976 969.619)" fill="#1a6fb5" fill-rule="nonzero">
    <path d="M483 968.9 C401.8 961.7 332 939.8 273.4 903.2 C161.2 833 90 706 72.4 545 C66.3 488.9 76 409.3 96.7 345.5 C135.9 224.6 216.5 139 335.5 92 C371 77.9 414 67.1 454.3 61.9 C468.6 60.1 474.4 59.9 504 60.3 C541 60.7 552.6 61.9 586 68.6 C704.4 92.2 795.5 152 858.5 247.5 C899.3 309.3 928.3 389.1 939.9 471.5 C942.2 487.6 944 506.2 944 513.8 L944 519 L723.6 519 L503.2 519 L473.6 484 C457.3 464.8 444 448.8 444 448.5 C444 448.2 537.4 448 651.6 448 C848.8 448 859.1 447.9 858.6 446.3 C858.3 445.3 855.5 435.6 852.4 424.8 L846.7 405 L815.2 404.8 L783.8 404.5 L778.1 388 C764.5 348.6 749 321 730 302 C722.8 294.7 718.7 291.5 712.8 288.5 L705 284.5 L705 271.9 L705 259.3 L709.8 260.1 C717.4 261.6 724.8 266 733.8 274.5 C752.4 292.1 770 319.1 791 362.2 L800.1 381 L818.1 381 C834.8 381 836.1 380.9 835.6 379.3 C835.4 378.3 833.9 373 832.5 367.5 C813.1 294.9 741.6 222 641.5 172.8 L625.5 165 L620.2 170.7 C599.1 193.6 582.2 220.5 574.5 243.4 C564.8 272.3 565.9 305.1 577.4 328.1 C578.8 330.9 580 333.6 580 334.1 C580 334.6 576.7 335 572.6 335 C563.7 335 563.5 334.9 558 323.7 C551.5 310.5 549.9 303.6 549.3 287 C548.8 271.1 550.3 260.3 555.6 244.4 C562.4 223.4 580.4 192.7 598.3 171.3 C606.8 161.2 606.8 161.1 604.6 159.7 C594.2 152.9 539.8 144 508.4 144 C482 144 430.2 153.8 394.9 165.4 C322.5 189.3 266.3 228.7 224.8 284.7 C184.8 338.5 160.5 409.2 156 484.3 C154.9 503.6 155.9 519.4 160.1 548.5 C183.4 709.9 268.4 818.8 406.2 863.9 C447.2 877.3 494.3 885 535.8 885 C541.4 885 546 885.2 546 885.3 C546 885.5 535.3 904.5 522.1 927.6 C499.6 967.2 498.1 969.5 495.4 969.6 C493.8 969.7 488.2 969.4 483 968.9 Z M461 769.8 C381.7 746 318.7 701.4 284 644.5 C249.2 587.6 239.9 514.2 258.5 443.4 C277.2 372.1 327.3 313.1 398 279.1 C406 275.3 417.5 270.4 423.5 268.2 C446.4 259.9 477.1 254 497.5 254 C505.8 254 524.1 256.4 526.4 257.7 C527.4 258.3 522.5 268.1 508.2 294.6 L488.7 330.7 L481.1 331.9 C470.1 333.7 451.7 338.4 442 342 C428.2 347 409.3 356.6 397 364.8 C382 374.7 361.2 395.2 352.1 409 C329.9 442.5 320.1 479.5 321.3 525.5 C322.2 561.2 329.3 586.7 345.5 612.9 C370.7 653.6 416.2 683.6 469 694.4 C486.8 698 509.8 698.3 516 695 C517.1 694.4 518 694.2 518 694.4 C518 695.8 466.7 770.5 465.7 770.7 C465 770.7 462.9 770.3 461 769.8 Z M615 405.1 C603.2 401.2 596.3 391.2 597.2 379.1 C597.8 371.3 601.8 364.7 608.4 360.5 C612.8 357.8 614.2 357.5 621.5 357.5 C628.8 357.5 630.2 357.8 634.6 360.5 C650.5 370.4 649.4 394.6 632.7 403.2 C628.3 405.4 619 406.4 615 405.1 Z"/>
  </g>
</svg>
